<svg id="email_iocn" xmlns="http://www.w3.org/2000/svg" width="40" height="30.403" viewBox="0 0 40 30.403">
  <path id="message" d="M35.69.5H4.31A4.062,4.062,0,0,0,0,4.246V27.157A4.062,4.062,0,0,0,4.31,30.9H35.69A4.062,4.062,0,0,0,40,27.157V4.246A4.062,4.062,0,0,0,35.69.5Zm0,2.037a2.231,2.231,0,0,1,.287.019L21.39,15.234a2.184,2.184,0,0,1-2.781,0L4.022,2.556a2.232,2.232,0,0,1,.288-.019Zm1.966,24.619a1.853,1.853,0,0,1-1.966,1.709H4.31a1.853,1.853,0,0,1-1.966-1.709V4.246A1.506,1.506,0,0,1,2.365,4L16.953,16.675a4.787,4.787,0,0,0,6.095,0L37.635,4a1.508,1.508,0,0,1,.021.25Zm0,0" transform="translate(0 -0.5)"/>
</svg>
