<svg xmlns="http://www.w3.org/2000/svg" width="41.666" height="50" viewBox="0 0 41.666 50">
  <g id="Contact_form" data-name="Contact form" transform="translate(-12 -2)">
    <path id="Path_1018" data-name="Path 1018" d="M42.166,12.667H18.833A.833.833,0,0,1,18,11.833v-5A.833.833,0,0,1,18.833,6H42.166A.833.833,0,0,1,43,6.833v5A.833.833,0,0,1,42.166,12.667ZM19.667,11H41.333V7.667H19.667Z" transform="translate(-1 -0.667)" fill="#fff"/>
    <path id="Path_1019" data-name="Path 1019" d="M18.833,23.5h5a.833.833,0,1,0,0-1.667H19.667V18.5h3.822l-1.322,1.322-1.077-1.077a.833.833,0,1,0-1.178,1.178l1.667,1.667a.833.833,0,0,0,1.178,0l4.167-4.167a.833.833,0,1,0-1.178-1.178l-1.135,1.135a.833.833,0,0,0-.776-.546h-5a.833.833,0,0,0-.833.833v5A.833.833,0,0,0,18.833,23.5Z" transform="translate(-1 -2.334)" fill="#fff"/>
    <path id="Path_1020" data-name="Path 1020" d="M25.744,26.244l-1.135,1.135a.833.833,0,0,0-.776-.546h-5a.833.833,0,0,0-.833.833v5a.833.833,0,0,0,.833.833h5a.833.833,0,1,0,0-1.667H19.667V28.5h3.822l-1.322,1.322-1.077-1.077a.833.833,0,1,0-1.178,1.178l1.667,1.667a.833.833,0,0,0,1.178,0l4.167-4.167a.833.833,0,1,0-1.178-1.178Z" transform="translate(-1 -4)" fill="#fff"/>
    <path id="Path_1021" data-name="Path 1021" d="M25.744,36.244l-1.135,1.135a.833.833,0,0,0-.776-.546h-5a.833.833,0,0,0-.833.833v5a.833.833,0,0,0,.833.833h5a.833.833,0,1,0,0-1.667H19.667V38.5h3.822l-1.322,1.322-1.077-1.077a.833.833,0,1,0-1.178,1.178l1.667,1.667a.833.833,0,0,0,1.178,0l4.167-4.167a.833.833,0,1,0-1.178-1.178Z" transform="translate(-1 -5.667)" fill="#fff"/>
    <path id="Path_1022" data-name="Path 1022" d="M44.166,24.667H30.833a.833.833,0,1,1,0-1.667H44.166a.833.833,0,1,1,0,1.667Z" transform="translate(-3 -3.5)" fill="#fff"/>
    <path id="Path_1023" data-name="Path 1023" d="M44.166,24.667H30.833a.833.833,0,1,1,0-1.667H44.166a.833.833,0,1,1,0,1.667Z" transform="translate(-3 -3.5)" fill="#fff"/>
    <path id="Path_1024" data-name="Path 1024" d="M38.333,34.667h-7.5a.833.833,0,1,1,0-1.667h7.5a.833.833,0,0,1,0,1.667Z" transform="translate(-3 -5.167)" fill="#fff"/>
    <path id="Path_1025" data-name="Path 1025" d="M51.469,28.766,47,24.3V2.833A.833.833,0,0,0,46.166,2H12.833A.833.833,0,0,0,12,2.833V42a.833.833,0,0,0,.833.833H36.895a9.09,9.09,0,0,0,1.438,6.411l.333.507v1.416a.833.833,0,0,0,1.667,0V49.5a.833.833,0,0,0-.139-.461l-.477-.719a7.429,7.429,0,0,1-1.13-5.487H41.43a6.083,6.083,0,0,0,1.2,2.541l.392.483a.833.833,0,1,0,1.295-1.048l-.387-.479a4.417,4.417,0,0,1,.083-5.622.833.833,0,0,0-.044-1.131L39.591,33.2a1.685,1.685,0,0,1-.007-2.361,1.726,1.726,0,0,1,2.367-.005l5.892,5.892a.833.833,0,1,0,1.178-1.178L47,33.529V26.653l3.292,3.292A5.8,5.8,0,0,1,52,34.069V45.486a4.149,4.149,0,0,1-.7,2.312l-.544.817a2.487,2.487,0,0,0-.417,1.4l.006,1.157a.833.833,0,0,0,.833.829h0a.833.833,0,0,0,.826-.834L52,50a.838.838,0,0,1,.14-.467l.544-.817a5.807,5.807,0,0,0,.982-3.236V34.069a7.451,7.451,0,0,0-2.2-5.3Zm-8.344.889a3.417,3.417,0,0,0-4.717.007,3.36,3.36,0,0,0,0,4.717l3.867,3.869a6.036,6.036,0,0,0-.957,2.917H13.667V3.667H45.333v28.2Z" fill="#fff"/>
    <path id="Path_1026" data-name="Path 1026" d="M30,43.833a.833.833,0,0,0,.833.833h10a.833.833,0,0,0,0-1.667h-10A.833.833,0,0,0,30,43.833Z" transform="translate(-3 -6.834)" fill="#fff"/>
    <path id="Path_1027" data-name="Path 1027" d="M44.166,20.667H30.833a.833.833,0,1,1,0-1.667H44.166a.833.833,0,1,1,0,1.667Z" transform="translate(-3 -2.834)" fill="#fff"/>
    <path id="Path_1028" data-name="Path 1028" d="M44.166,30.667H30.833a.833.833,0,1,1,0-1.667H44.166a.833.833,0,1,1,0,1.667Z" transform="translate(-3 -4.5)" fill="#fff"/>
    <path id="Path_1029" data-name="Path 1029" d="M38.333,40.667h-7.5a.833.833,0,1,1,0-1.667h7.5a.833.833,0,0,1,0,1.667Z" transform="translate(-3 -6.167)" fill="#fff"/>
  </g>
</svg>
