<svg id="full_name_icon" xmlns="http://www.w3.org/2000/svg" width="40" height="33.333" viewBox="0 0 40 33.333">
  <path id="Path_324" data-name="Path 324" d="M35.417,72.668H4.583A4.587,4.587,0,0,1,0,68.085V47.251a4.587,4.587,0,0,1,4.583-4.583h10a1.25,1.25,0,0,1,0,2.5h-10A2.086,2.086,0,0,0,2.5,47.251V68.085a2.086,2.086,0,0,0,2.083,2.083H35.417A2.086,2.086,0,0,0,37.5,68.085V47.251a2.086,2.086,0,0,0-2.083-2.083h-10a1.25,1.25,0,0,1,0-2.5h10A4.587,4.587,0,0,1,40,47.251V68.085A4.587,4.587,0,0,1,35.417,72.668Zm0,0" transform="translate(0 -39.334)"/>
  <path id="Path_325" data-name="Path 325" d="M181.085,9.167h-7.5a2.92,2.92,0,0,1-2.917-2.917V2.917A2.92,2.92,0,0,1,173.585,0h7.5A2.92,2.92,0,0,1,184,2.917V6.25A2.92,2.92,0,0,1,181.085,9.167Zm-7.5-6.667a.417.417,0,0,0-.417.417V6.25a.417.417,0,0,0,.417.417h7.5a.417.417,0,0,0,.417-.417V2.917a.417.417,0,0,0-.417-.417Zm0,0" transform="translate(-157.335)"/>
  <path id="Path_326" data-name="Path 326" d="M110.835,157.665A4.167,4.167,0,1,1,115,153.5,4.172,4.172,0,0,1,110.835,157.665Zm0-5.833A1.667,1.667,0,1,0,112.5,153.5,1.669,1.669,0,0,0,110.835,151.832Zm0,0" transform="translate(-98.334 -137.666)"/>
  <path id="Path_327" data-name="Path 327" d="M77.75,284a1.25,1.25,0,0,1-1.25-1.25v-.833a2.086,2.086,0,0,0-2.083-2.083H68.583a2.086,2.086,0,0,0-2.083,2.083v.833a1.25,1.25,0,1,1-2.5,0v-.833a4.587,4.587,0,0,1,4.583-4.583h5.833A4.587,4.587,0,0,1,79,281.915v.833A1.25,1.25,0,0,1,77.75,284Zm0,0" transform="translate(-59 -255.666)"/>
  <path id="Path_328" data-name="Path 328" d="M309.085,162.5h-9.167a1.25,1.25,0,0,1,0-2.5h9.167a1.25,1.25,0,0,1,0,2.5Zm0,0" transform="translate(-275.335 -147.5)"/>
  <path id="Path_329" data-name="Path 329" d="M309.085,247.832h-9.167a1.25,1.25,0,0,1,0-2.5h9.167a1.25,1.25,0,1,1,0,2.5Zm0,0" transform="translate(-275.335 -226.166)"/>
  <path id="Path_330" data-name="Path 330" d="M309.085,333.168h-9.167a1.25,1.25,0,0,1,0-2.5h9.167a1.25,1.25,0,1,1,0,2.5Zm0,0" transform="translate(-275.335 -304.834)"/>
</svg>
