<svg xmlns="http://www.w3.org/2000/svg" width="53.403" height="50" viewBox="0 0 53.403 50">
  <g id="gift" transform="translate(0 -16.314)">
    <g id="Group_596" data-name="Group 596" transform="translate(0 16.314)">
      <path id="Path_1000" data-name="Path 1000" d="M50.066,29.6H39.505a12.968,12.968,0,0,0,1.862-1.492,6.983,6.983,0,0,0,0-9.82,7.056,7.056,0,0,0-9.789,0c-1.445,1.452-5.287,7.363-4.756,11.311h-.24c.527-3.949-3.311-9.86-4.756-11.311a7.056,7.056,0,0,0-9.789,0,6.986,6.986,0,0,0,0,9.82A13.208,13.208,0,0,0,13.9,29.6H3.338A3.343,3.343,0,0,0,0,32.937v8.344A1.669,1.669,0,0,0,1.669,42.95H3.338V62.976a3.343,3.343,0,0,0,3.338,3.338H46.728a3.343,3.343,0,0,0,3.338-3.338V42.95h1.669A1.669,1.669,0,0,0,53.4,41.281V32.937A3.343,3.343,0,0,0,50.066,29.6ZM14.4,20.641a3.558,3.558,0,0,1,5.057,0c2.25,2.263,4.486,8.044,3.708,8.848a1.1,1.1,0,0,1-.617.11c-2.306,0-6.709-2.4-8.147-3.845A3.64,3.64,0,0,1,14.4,20.641ZM25.033,62.976H6.675V42.95H25.033Zm0-23.364H3.338V32.937h21.7Zm8.912-18.971A3.6,3.6,0,1,1,39,25.754C37.562,27.2,33.16,29.6,30.854,29.6a1.1,1.1,0,0,1-.621-.11C29.459,28.685,31.695,22.9,33.944,20.641ZM46.728,62.976H28.37V42.95H46.728Zm3.338-23.364H28.37V32.937h21.7Z" transform="translate(0 -16.314)" fill="#fff"/>
    </g>
  </g>
</svg>
