<svg xmlns="http://www.w3.org/2000/svg" width="330.484" height="169.294" viewBox="0 0 330.484 169.294">
  <path id="Path_1091" data-name="Path 1091" d="M70.647,188.514a25.982,25.982,0,0,0,8.981-1.683l41.516,65a29.936,29.936,0,1,0,47.422,8.926l54.505-39.837a24.047,24.047,0,0,0,32.723-1.121l55.749,34.866a34.066,34.066,0,1,0,7.162-8.732l-57.043-35.689a24.228,24.228,0,1,0-45.286,1.7L161.958,251.7a29.454,29.454,0,0,0-31.375-5.916L89.126,180.876a26.149,26.149,0,1,0-18.479,7.638Z" transform="translate(-44.508 -136.219)" fill="#fff"/>
</svg>
