<svg id="twt_icon" xmlns="http://www.w3.org/2000/svg" width="50" height="50" viewBox="0 0 50 50">
  <g id="Ellipse_74" data-name="Ellipse 74" fill="none" stroke="#fff" stroke-width="3">
    <circle cx="25" cy="25" r="25" stroke="none"/>
    <circle cx="25" cy="25" r="23.5" fill="none"/>
  </g>
  <g id="instagram" transform="translate(11.104 11.293)">
    <path id="Path_992" data-name="Path 992" d="M27.1,7.857a9.766,9.766,0,0,0-.621-3.242A6.846,6.846,0,0,0,22.57.7,9.791,9.791,0,0,0,19.328.084C17.9.016,17.443,0,13.815,0S9.732.016,8.307.078A9.768,9.768,0,0,0,5.065.7a6.521,6.521,0,0,0-2.37,1.545A6.58,6.58,0,0,0,1.154,4.61,9.792,9.792,0,0,0,.533,7.852C.465,9.283.449,9.737.449,13.365s.016,4.083.078,5.508a9.765,9.765,0,0,0,.621,3.242,6.845,6.845,0,0,0,3.91,3.91,9.792,9.792,0,0,0,3.242.621c1.425.063,1.88.078,5.508.078s4.083-.015,5.508-.078a9.763,9.763,0,0,0,3.242-.621,6.836,6.836,0,0,0,3.911-3.91,9.8,9.8,0,0,0,.621-3.242c.063-1.425.078-1.88.078-5.508S27.164,9.283,27.1,7.857ZM24.7,18.769a7.325,7.325,0,0,1-.459,2.48A4.433,4.433,0,0,1,21.7,23.786a7.351,7.351,0,0,1-2.48.459c-1.41.063-1.832.078-5.4.078s-3.994-.016-5.4-.078a7.322,7.322,0,0,1-2.48-.459,4.112,4.112,0,0,1-1.535-1,4.155,4.155,0,0,1-1-1.535,7.352,7.352,0,0,1-.459-2.48c-.063-1.41-.078-1.833-.078-5.4s.015-3.994.078-5.4A7.322,7.322,0,0,1,3.409,5.5a4.062,4.062,0,0,1,1-1.535,4.149,4.149,0,0,1,1.535-1,7.356,7.356,0,0,1,2.48-.459c1.41-.063,1.833-.078,5.4-.078s3.994.016,5.4.078a7.325,7.325,0,0,1,2.48.459,4.11,4.11,0,0,1,1.535,1,4.154,4.154,0,0,1,1,1.535,7.355,7.355,0,0,1,.459,2.48c.063,1.41.078,1.832.078,5.4S24.758,17.359,24.7,18.769Zm0,0" fill="#fff"/>
    <path id="Path_993" data-name="Path 993" d="M131.815,124.5a6.865,6.865,0,1,0,6.865,6.865A6.867,6.867,0,0,0,131.815,124.5Zm0,11.319a4.453,4.453,0,1,1,4.453-4.453A4.454,4.454,0,0,1,131.815,135.819Zm0,0" transform="translate(-118 -118)" fill="#fff"/>
    <path id="Path_994" data-name="Path 994" d="M365.655,90.2a1.6,1.6,0,1,1-1.6-1.6A1.6,1.6,0,0,1,365.655,90.2Zm0,0" transform="translate(-343.1 -83.976)" fill="#fff"/>
  </g>
</svg>
