<svg id="MainLOGO" xmlns="http://www.w3.org/2000/svg" xmlns:xlink="http://www.w3.org/1999/xlink" width="552.987" height="128.612" viewBox="0 0 552.987 128.612">
  <defs>
    <linearGradient id="linear-gradient" y1="0.5" x2="1" y2="0.5" gradientUnits="objectBoundingBox">
      <stop offset="0" stop-color="#ff512f"/>
      <stop offset="1" stop-color="#f09819"/>
    </linearGradient>
  </defs>
  <g id="slogen" transform="translate(17.702 110.696)">
    <g id="Group_3" data-name="Group 3" transform="translate(0 0)">
      <g id="Group_2" data-name="Group 2">
        <path id="Path_1" data-name="Path 1" d="M670.255,574.569l-.1.578a.708.708,0,0,1-.721.651h-1.611c-.409,0-.576-.242-.5-.627l.1-.554c.264-1.54-.361-2.335-2.62-2.335-2.069,0-3.1.722-3.343,2.142l-.1.554c-.217,1.228.264,1.613,1.514,1.974l3.005.867c2.236.65,3.655,1.685,3.1,4.79l-.073.409c-.48,2.672-2.308,4.453-6.468,4.453-4.448,0-5.962-1.661-5.481-4.453l.119-.7a.708.708,0,0,1,.722-.65h1.611c.409,0,.576.241.5.626l-.121.674c-.289,1.564.386,2.311,2.717,2.311,2.213,0,3.271-.722,3.535-2.287l.1-.554c.216-1.276-.24-1.661-1.49-2.022l-3.005-.867c-2.236-.65-3.655-1.685-3.127-4.742l.072-.409c.458-2.527,2.236-4.308,6.276-4.308C669.269,570.092,670.711,571.8,670.255,574.569Z" transform="translate(-656.874 -570.092)" fill="#fff"/>
        <path id="Path_2" data-name="Path 2" d="M686.083,587.237h-4.592a.51.51,0,0,1-.553-.626l.168-.939a.734.734,0,0,1,.769-.6h.793l6.54-13.7a1.529,1.529,0,0,1,1.395-1.059h2.044c.6,0,.914.313,1.01,1.059l1.707,13.7h.817a.51.51,0,0,1,.553.626l-.168.939a.734.734,0,0,1-.769.6h-5.121a.51.51,0,0,1-.553-.626l.168-.939a.737.737,0,0,1,.769-.578h1.346l-.337-3.1h-5.506l-1.443,3.1h1.346a.5.5,0,0,1,.553.6l-.168.939A.734.734,0,0,1,686.083,587.237Zm1.467-7.341h4.28l-.818-7.437Z" transform="translate(-660.272 -570.123)" fill="#fff"/>
        <path id="Path_3" data-name="Path 3" d="M716.269,587.321h-1.9c-.6,0-.938-.313-1.01-1.059l-1.707-13.7h-.818a.51.51,0,0,1-.553-.626l.168-.939a.734.734,0,0,1,.769-.6h5.121a.51.51,0,0,1,.553.626l-.168.939a.737.737,0,0,1-.769.578H714.61l1.37,12.4,5.771-12.4H720.4a.5.5,0,0,1-.553-.6l.168-.939a.734.734,0,0,1,.769-.6h4.592a.51.51,0,0,1,.553.626l-.168.939a.734.734,0,0,1-.769.6H724.2l-6.54,13.7A1.507,1.507,0,0,1,716.269,587.321Z" transform="translate(-664.419 -570.135)" fill="#fff"/>
        <path id="Path_4" data-name="Path 4" d="M747.571,587.249h-11.06a.51.51,0,0,1-.553-.626l.168-.939a.734.734,0,0,1,.769-.6h1.37l2.212-12.516h-1.37a.51.51,0,0,1-.553-.626l.168-.939a.734.734,0,0,1,.769-.6H750.5c.625,0,.938.337.817.987l-.6,3.466a.889.889,0,0,1-.914.794h-.818a.618.618,0,0,1-.673-.818l.409-2.359h-5.29l-.89,5.055h3.438a.91.91,0,0,1,.962,1.107l-.024.145a1.186,1.186,0,0,1-1.25.986h-3.51l-.962,5.416h5.29l.457-2.6a.889.889,0,0,1,.914-.794h.817a.618.618,0,0,1,.673.818l-.649,3.683A1.062,1.062,0,0,1,747.571,587.249Z" transform="translate(-668.047 -570.135)" fill="#fff"/>
      </g>
    </g>
    <g id="Group_5" data-name="Group 5" transform="translate(402.146 0)">
      <g id="Group_4" data-name="Group 4">
        <path id="Path_5" data-name="Path 5" d="M1136.821,587.249h-11.06a.51.51,0,0,1-.552-.626l.168-.939a.733.733,0,0,1,.769-.6h1.37l2.213-12.516h-1.371a.51.51,0,0,1-.554-.626l.169-.939a.734.734,0,0,1,.77-.6h11.011a.739.739,0,0,1,.818.987l-.6,3.466a.889.889,0,0,1-.913.794h-.817a.618.618,0,0,1-.673-.818l.409-2.359h-5.29l-.89,5.055h3.438a.911.911,0,0,1,.962,1.107l-.024.145a1.187,1.187,0,0,1-1.251.986h-3.509l-.963,5.416h5.29l.457-2.6a.889.889,0,0,1,.913-.794h.818a.618.618,0,0,1,.674.818l-.649,3.683A1.062,1.062,0,0,1,1136.821,587.249Z" transform="translate(-1125.197 -570.135)" fill="#fff"/>
        <path id="Path_6" data-name="Path 6" d="M1164.082,587.321H1162.9c-1.057,0-1.346-.313-1.562-1.348l-2.838-13.118-2.163,12.228h1.395a.51.51,0,0,1,.552.626l-.167.939a.734.734,0,0,1-.77.6h-5.073a.509.509,0,0,1-.552-.626l.168-.939a.733.733,0,0,1,.768-.6h1.394l2.213-12.516h-1.394a.51.51,0,0,1-.554-.626l.168-.939a.735.735,0,0,1,.77-.6h4.328c.985,0,1.3.313,1.49,1.324l2.6,12.853,2.115-12.011H1164.4a.51.51,0,0,1-.552-.626l.167-.939a.734.734,0,0,1,.77-.6h5.072a.51.51,0,0,1,.553.626l-.168.939a.734.734,0,0,1-.769.6h-1.395l-2.357,13.383A1.537,1.537,0,0,1,1164.082,587.321Z" transform="translate(-1128.944 -570.135)" fill="#fff"/>
        <path id="Path_7" data-name="Path 7" d="M1181.528,582.435l.193-1.083a1.419,1.419,0,0,1,1.467-1.324h.192a1.079,1.079,0,0,1,1.154,1.4l-.192,1.011c-.361,1.853.264,2.84,2.116,2.84,1.515,0,2.332-.794,2.645-2.6l1.779-10.109h-1.563a.509.509,0,0,1-.552-.626l.167-.939a.734.734,0,0,1,.769-.6h5.891a.51.51,0,0,1,.553.626l-.168.939a.734.734,0,0,1-.769.6h-1.347l-1.779,10.037c-.577,3.322-2.621,4.91-5.795,4.91C1182.706,587.514,1180.951,585.732,1181.528,582.435Z" transform="translate(-1133.142 -570.135)" fill="#fff"/>
        <path id="Path_8" data-name="Path 8" d="M1216.122,570.092c4.207,0,6.588,2.311,5.89,6.138l-.962,5.488c-.672,3.827-3.078,5.753-7.116,5.753-4.208,0-6.589-2.311-5.891-6.138l.962-5.488C1209.678,572.018,1212.083,570.092,1216.122,570.092Zm-2.116,15.14c2.379,0,3.557-1.035,3.966-3.322l1.034-5.873c.41-2.383-.5-3.707-2.957-3.707-2.381,0-3.559,1.035-3.967,3.323l-1.034,5.872C1210.639,583.908,1211.553,585.232,1214.006,585.232Z" transform="translate(-1136.887 -570.092)" fill="#fff"/>
        <path id="Path_9" data-name="Path 9" d="M1242.839,587.249h-5.819a.509.509,0,0,1-.552-.626l.167-.939a.735.735,0,0,1,.77-.6h1.442l.793-4.549-3.126-7.967h-.769a.51.51,0,0,1-.554-.626l.169-.939a.734.734,0,0,1,.769-.6h5.026a.509.509,0,0,1,.552.626l-.167.939a.737.737,0,0,1-.77.578h-1.081l2.091,5.656,4.039-5.656h-1.153a.5.5,0,0,1-.554-.6l.168-.939a.735.735,0,0,1,.77-.6h4.616a.509.509,0,0,1,.552.626l-.168.939a.734.734,0,0,1-.769.6h-.77l-5.915,7.943-.792,4.573h1.418a.509.509,0,0,1,.552.626l-.168.939A.734.734,0,0,1,1242.839,587.249Z" transform="translate(-1140.739 -570.135)" fill="#fff"/>
      </g>
    </g>
    <g id="Group_7" data-name="Group 7" transform="translate(120.952 0.537)">
      <g id="Group_6" data-name="Group 6">
        <path id="Path_10" data-name="Path 10" d="M809.354,587.874h-11.06a.51.51,0,0,1-.553-.626l.168-.939a.734.734,0,0,1,.769-.6h1.37l2.212-12.516h-1.37a.51.51,0,0,1-.553-.626l.168-.939a.734.734,0,0,1,.769-.6h11.012c.625,0,.938.337.818.987l-.6,3.466a.889.889,0,0,1-.914.794h-.817a.618.618,0,0,1-.673-.818l.409-2.359h-5.29l-.89,5.055h3.438a.91.91,0,0,1,.962,1.107l-.024.145a1.186,1.186,0,0,1-1.25.986h-3.51l-.962,5.416h5.29l.457-2.6a.889.889,0,0,1,.914-.794h.817a.618.618,0,0,1,.673.818l-.649,3.683A1.062,1.062,0,0,1,809.354,587.874Z" transform="translate(-797.729 -570.76)" fill="#fff"/>
        <path id="Path_11" data-name="Path 11" d="M828.939,587.874H824.25a.51.51,0,0,1-.553-.626l.168-.939a.734.734,0,0,1,.769-.6h.745l5.458-6.354-3.2-6.162h-.745a.51.51,0,0,1-.553-.626l.168-.939a.734.734,0,0,1,.769-.6h5.1a.51.51,0,0,1,.553.626l-.168.939a.737.737,0,0,1-.769.578h-1.106l2.236,4.549,3.8-4.549h-1.13a.5.5,0,0,1-.553-.6l.168-.939a.734.734,0,0,1,.769-.6h4.688a.51.51,0,0,1,.553.626l-.168.939a.734.734,0,0,1-.769.6h-.745l-5.386,6.258,3.246,6.258h.745a.51.51,0,0,1,.553.626l-.168.939a.734.734,0,0,1-.769.6h-5.1a.51.51,0,0,1-.553-.626l.168-.939a.737.737,0,0,1,.769-.578h1.106l-2.284-4.646-3.871,4.646h1.13a.5.5,0,0,1,.553.6l-.168.939A.734.734,0,0,1,828.939,587.874Z" transform="translate(-801.397 -570.76)" fill="#fff"/>
        <path id="Path_12" data-name="Path 12" d="M858.42,587.874h-5.89a.51.51,0,0,1-.553-.626l.168-.939a.734.734,0,0,1,.769-.6h1.37l2.212-12.516h-1.371a.51.51,0,0,1-.553-.626l.169-.939a.734.734,0,0,1,.769-.6h6.755c3.7,0,5.627,1.685,5.1,4.766l-.264,1.541c-.529,3.081-2.814,4.284-6.227,4.284h-2.909l-.721,4.092h1.563a.51.51,0,0,1,.553.626l-.169.939A.734.734,0,0,1,858.42,587.874Zm-.1-8.352h2.6c1.731,0,2.909-.7,3.2-2.455l.265-1.444c.313-1.757-.625-2.455-2.356-2.455h-2.573Z" transform="translate(-805.393 -570.76)" fill="#fff"/>
        <path id="Path_13" data-name="Path 13" d="M890.217,587.874h-11.06a.51.51,0,0,1-.553-.626l.169-.939a.734.734,0,0,1,.769-.6h1.37l2.213-12.516h-1.371a.51.51,0,0,1-.553-.626l.169-.939a.734.734,0,0,1,.769-.6H893.15a.739.739,0,0,1,.818.987l-.6,3.466a.889.889,0,0,1-.914.794h-.817a.617.617,0,0,1-.673-.818l.409-2.359h-5.29l-.89,5.055h3.439a.91.91,0,0,1,.961,1.107l-.023.145a1.187,1.187,0,0,1-1.251.986h-3.51l-.963,5.416h5.29l.456-2.6a.89.89,0,0,1,.914-.794h.817a.618.618,0,0,1,.674.818l-.65,3.683A1.06,1.06,0,0,1,890.217,587.874Z" transform="translate(-809.156 -570.76)" fill="#fff"/>
        <path id="Path_14" data-name="Path 14" d="M915.916,587.248l-3.1-6.114a1.366,1.366,0,0,1-.192-1.011l.024-.12a.838.838,0,0,1,.914-.746h.89c1.587,0,2.669-.6,2.909-1.974l.385-2.19c.24-1.324-.625-1.926-2.236-1.926H912.6l-2.212,12.54h1.346a.51.51,0,0,1,.553.626l-.168.939a.734.734,0,0,1-.769.6h-5.674a.51.51,0,0,1-.553-.626l.168-.939a.734.734,0,0,1,.769-.6h1.37l2.212-12.516h-1.37a.51.51,0,0,1-.553-.626l.168-.939a.734.734,0,0,1,.769-.6h7c3.847,0,5.53,1.637,5.025,4.4l-.361,2.022c-.409,2.238-1.779,3.346-4.352,3.659l2.645,4.862a1.39,1.39,0,0,1-.673,1.974A1.5,1.5,0,0,1,915.916,587.248Z" transform="translate(-812.903 -570.76)" fill="#fff"/>
        <path id="Path_15" data-name="Path 15" d="M933.029,587.874a.51.51,0,0,1-.553-.626l.168-.939a.734.734,0,0,1,.769-.6h1.515l2.212-12.516h-1.515a.51.51,0,0,1-.553-.626l.168-.939a.734.734,0,0,1,.769-.6H942a.51.51,0,0,1,.553.626l-.168.939a.734.734,0,0,1-.769.6H940.1l-2.212,12.516H939.4a.51.51,0,0,1,.553.626l-.168.939a.734.734,0,0,1-.769.6Z" transform="translate(-816.768 -570.76)" fill="#fff"/>
        <path id="Path_16" data-name="Path 16" d="M964,587.874h-11.06a.51.51,0,0,1-.553-.626l.168-.939a.734.734,0,0,1,.769-.6h1.37l2.212-12.516h-1.37a.51.51,0,0,1-.553-.626l.168-.939a.734.734,0,0,1,.769-.6H966.93c.625,0,.938.337.818.987l-.6,3.466a.889.889,0,0,1-.914.794h-.817a.618.618,0,0,1-.673-.818l.409-2.359h-5.29l-.89,5.055h3.438a.91.91,0,0,1,.962,1.107l-.024.145a1.186,1.186,0,0,1-1.25.986h-3.51l-.962,5.416h5.29l.457-2.6a.89.89,0,0,1,.914-.794h.818a.618.618,0,0,1,.673.818l-.649,3.683A1.062,1.062,0,0,1,964,587.874Z" transform="translate(-819.581 -570.76)" fill="#fff"/>
        <path id="Path_17" data-name="Path 17" d="M991.258,587.946H990.08c-1.059,0-1.346-.313-1.563-1.348L985.68,573.48l-2.165,12.227h1.395a.51.51,0,0,1,.554.626l-.168.939a.735.735,0,0,1-.769.6h-5.073a.511.511,0,0,1-.554-.626l.169-.939a.734.734,0,0,1,.769-.6h1.394l2.211-12.516h-1.395a.509.509,0,0,1-.552-.626l.168-.939a.734.734,0,0,1,.769-.6h4.328c.986,0,1.3.313,1.491,1.324l2.6,12.853,2.116-12.011H991.57a.509.509,0,0,1-.552-.626l.168-.939a.733.733,0,0,1,.768-.6h5.074a.509.509,0,0,1,.552.626l-.167.939a.734.734,0,0,1-.77.6h-1.395l-2.356,13.383A1.535,1.535,0,0,1,991.258,587.946Z" transform="translate(-823.328 -570.76)" fill="#fff"/>
        <path id="Path_18" data-name="Path 18" d="M1015.877,588.1c-4.087,0-6.42-2.311-5.747-6.138l.963-5.488c.673-3.827,3.054-5.753,6.8-5.753,4.088,0,6.083,1.974,5.506,5.343l-.1.554c-.072.409-.289.65-.673.65H1021a.487.487,0,0,1-.53-.626l.1-.554c.361-2.046-.409-3.129-2.742-3.129-2.091,0-3.245,1.035-3.654,3.323l-1.035,5.872c-.408,2.383.482,3.707,2.814,3.707,2.091,0,3.078-.842,3.438-3.009l.144-.842a.677.677,0,0,1,.673-.626h1.658c.385,0,.577.241.5.65l-.144.842C1021.6,586.483,1019.628,588.1,1015.877,588.1Z" transform="translate(-827.727 -570.717)" fill="#fff"/>
        <path id="Path_19" data-name="Path 19" d="M1046.765,587.874H1035.7a.51.51,0,0,1-.554-.626l.169-.939a.734.734,0,0,1,.769-.6h1.371l2.212-12.516H1038.3a.509.509,0,0,1-.552-.626l.168-.939a.733.733,0,0,1,.769-.6H1049.7a.739.739,0,0,1,.818.987l-.6,3.466a.89.89,0,0,1-.914.794h-.817a.617.617,0,0,1-.673-.818l.408-2.359h-5.29l-.89,5.055h3.439a.91.91,0,0,1,.961,1.107l-.023.145a1.187,1.187,0,0,1-1.25.986h-3.51l-.962,5.416h5.29l.456-2.6a.891.891,0,0,1,.915-.794h.817a.618.618,0,0,1,.673.818l-.65,3.683A1.06,1.06,0,0,1,1046.765,587.874Z" transform="translate(-831.277 -570.76)" fill="#fff"/>
      </g>
    </g>
  </g>
  <path id="TOUR" d="M702.366,446.838v20.468H680.785v59.13h-23.4v-59.13H636.258V446.838Zm48.946-1.251c-26.807,0-42.935,18.876-42.935,41.049s16.129,41.05,42.935,41.05,42.936-18.876,42.936-41.05S778.119,445.587,751.313,445.587Zm0,61.631c-12.154,0-19.083-9.437-19.083-20.581s6.929-20.581,19.083-20.581,19.082,9.438,19.082,20.581S763.466,507.218,751.313,507.218Zm79.669-60.38V495.62c0,7.505,4.658,11.6,10.336,11.6s10.565-4.093,10.565-11.6V446.838h23.853V495.62c0,20.809-15.789,32.067-34.417,32.067s-34.189-11.258-34.189-32.067V446.838Zm126.126,59.585a15.66,15.66,0,0,1-8.632,2.729c-4.657,0-8.292-3.525-9.314-11.03,10.45-3.3,16.471-11.825,16.471-23.538,0-15.237-9.883-27.746-28.4-27.746h-38.62v79.6h23.854V499.6h5.679c.909,8.187,4.77,28.087,25.443,28.087a35.9,35.9,0,0,0,20.786-6.14Zm-32.372-23.312H912.469V467.306h12.267c4.089,0,7.042,3.867,7.042,8.074C931.778,479.245,928.825,483.111,924.736,483.111Z" transform="translate(-636.258 -441.92)" fill="url(#linear-gradient)"/>
  <path id="G" d="M1120.863,455.48c-7.837-6.14-16.356-9.893-28.4-9.893-26.807,0-44.3,18.876-44.3,41.049s17.492,41.05,44.3,41.05c13.177,0,23.74-5.344,32.259-12.849v-34.8h-39.188v17.171h16.47v8.755a35.492,35.492,0,0,1-9.541,1.251c-12.381,0-20.446-9.1-20.446-20.581s8.066-20.581,20.446-20.581c4.77,0,10.223.8,15.107,4.89Z" transform="translate(-694.464 -441.92)" fill="#fff"/>
  <g id="Group_11" data-name="Group 11" transform="translate(441.559)">
    <g id="Group_8" data-name="Group 8" transform="translate(0 5.06)">
      <path id="Path_20" data-name="Path 20" d="M1200.923,447.208h0Z" transform="translate(-1157.608 -447.208)" fill="#fff"/>
      <path id="Path_21" data-name="Path 21" d="M1236.586,491.8c.039-.416.073-.834.1-1.253.018-.282.028-.566.041-.849.012-.314.028-.626.034-.941.01-.629.009-1.261-.011-1.9-.02-.619-.059-1.232-.107-1.843-.014-.17-.029-.339-.045-.51q-.067-.732-.161-1.457c-.017-.133-.031-.267-.05-.4q-.124-.879-.286-1.745c-.03-.162-.064-.321-.1-.481q-.131-.655-.283-1.3c-.044-.187-.087-.374-.133-.56-.138-.549-.284-1.1-.445-1.636-.039-.133-.085-.264-.126-.4q-.2-.634-.413-1.261-.112-.322-.229-.643-.2-.543-.415-1.079c-.076-.189-.148-.379-.226-.567q-.3-.725-.635-1.433c-.106-.23-.219-.457-.331-.685q-.212-.435-.436-.864c-.122-.235-.243-.469-.369-.7q-.321-.588-.66-1.164c-.163-.277-.332-.549-.5-.823-.158-.254-.318-.508-.481-.758s-.318-.482-.481-.72c-.045-.065-.087-.132-.131-.2l-.01,0a43.087,43.087,0,0,0-26.6-17.449l-.016-.009-.021-.009c-.1-.021-.194-.033-.29-.052q-.988-.2-1.992-.355c-.142-.022-.282-.05-.423-.07q-1.222-.179-2.464-.291c-.181-.016-.364-.024-.545-.039q-.962-.075-1.935-.111c-.274-.01-.549-.015-.823-.02s-.527-.018-.792-.018v.021h0v-.021h0c-.5,0-1,.008-1.5.024q-1.128.036-2.242.128h0a43.8,43.8,0,0,0-30.971,16.425l-.005.007q-.6.761-1.158,1.547l-.025.035q-.55.774-1.064,1.571l-.041.066q-.5.785-.971,1.591c-.019.033-.036.066-.055.1q-.457.8-.88,1.613c-.02.037-.037.076-.056.113-.278.544-.546,1.093-.8,1.65-.015.031-.026.062-.04.093-.257.567-.5,1.14-.732,1.719l0,0h0a39.187,39.187,0,0,0-2.753,15.763,40.343,40.343,0,0,0,18.259,32.217l0,.007c.161.107.328.209.49.315.28.181.558.365.843.541.181.112.367.217.55.326q1.022.611,2.084,1.169c.108.057.215.117.326.173.4.2.8.4,1.2.591.123.059.246.118.369.175q.637.3,1.286.572l.244.1a44.692,44.692,0,0,0,17.3,3.464c.5,0,1-.009,1.5-.025,21.377-.693,38.632-16.069,41.414-35.595h0c.07-.485.127-.972.178-1.461C1236.559,492.084,1236.573,491.942,1236.586,491.8Zm-15.2,20.857a38.873,38.873,0,0,1-26.6,11.471c-.444.015-.888.022-1.329.022a39.943,39.943,0,0,1-11.3-1.627l-6.241-4.8a2.475,2.475,0,0,0-1.59-.512l-3.127.1a37.768,37.768,0,0,1-4.141-3.3,34.694,34.694,0,0,1-11.4-24.514,34.137,34.137,0,0,1,.987-9.321l6.471,8.086a2.475,2.475,0,0,0,2.014.928l11.155-.361a2.479,2.479,0,0,1,2.556,2.4l.568,17.542a2.483,2.483,0,0,0,1,1.914l4.071,3.018a2.478,2.478,0,0,0,3.951-2.073l-.24-7.423a2.809,2.809,0,0,1,1.409-2.467l9.255-6.63a2.482,2.482,0,0,0,.428-3.891l-11.331-13.528a2.48,2.48,0,0,1-.75-1.7l-1.522-3.394a2.478,2.478,0,0,1,2.4-2.559,2.481,2.481,0,0,0,1.851-4.033l-3.717-4.63a3.017,3.017,0,0,0-2.417-1.112l-14.409.467a38.95,38.95,0,0,1,20.79-8.187l.522.257a2.45,2.45,0,0,1,.555.374l4.286,3.821a2.475,2.475,0,0,0,3.232.055l4.31-3.589a38.3,38.3,0,0,1,16.771,8.754,3.022,3.022,0,0,0-1.742.431l-14.458,9.683a2.481,2.481,0,0,0-.876,3.323l4.64,7.666a2.476,2.476,0,0,0,1.643,1.219l7.257,1.753c1.338.289,3.905,1.608,3.617,2.948l-3.33,15.454a2.478,2.478,0,0,0,3.209,2.875l7.3-2.449A36.384,36.384,0,0,1,1221.387,512.656Z" transform="translate(-1150.48 -447.208)" fill="#fff"/>
    </g>
    <g id="Group_10" data-name="Group 10" transform="translate(61.349)">
      <g id="Group_9" data-name="Group 9" transform="translate(18.228)">
        <path id="Path_22" data-name="Path 22" d="M1266.834,453.823l-23.682,14.211,23.621.275a7.362,7.362,0,0,0,6.582-3.9l1.213-2.276a3.686,3.686,0,0,0-1.514-4.987Z" transform="translate(-1243.152 -443.076)" fill="#f09819"/>
        <path id="Path_23" data-name="Path 23" d="M1263.157,441.322h-2.578a7.36,7.36,0,0,0-6.536,3.972l-10.891,20.986,23.682-14.212,0-7.059a3.682,3.682,0,0,0-3.679-3.687Z" transform="translate(-1243.152 -441.321)" fill="#ff512f"/>
      </g>
      <path id="Path_24" data-name="Path 24" d="M1224.624,481.7a2.7,2.7,0,0,1-1.389-5.021l10.225-6.055a2.345,2.345,0,0,1,.3-.145l5.252-3.154.469.681c.708,1.029,1.383,2.1,2.006,3.169l.416.716-.825.5c-7.227,4.324-8.569,5.121-8.851,5.283l-6.218,3.65a2.684,2.684,0,0,1-1.379.381Z" transform="translate(-1221.924 -444.97)" fill="#ff512f"/>
      <path id="Path_25" data-name="Path 25" d="M1268.85,452.034a2.7,2.7,0,0,0-3.7-.93l-23.359,13.911c.273.367.548.733.808,1.109l.01,0c.045.065.087.132.131.2.163.238.323.479.481.72s.323.5.481.758c.169.273.338.546.5.823.18.306.354.616.526.928l23.194-13.814a2.7,2.7,0,0,0,.927-3.707Z" transform="translate(-1224.731 -442.64)" fill="#fff"/>
    </g>
  </g>
</svg>
