<svg id="password_icon" xmlns="http://www.w3.org/2000/svg" width="40" height="40" viewBox="0 0 40 40">
  <path id="Path_322" data-name="Path 322" d="M173.345,298.5a1.393,1.393,0,0,0,1.431-1.352v-5.6a1.433,1.433,0,0,0-2.862,0v5.6A1.394,1.394,0,0,0,173.345,298.5Zm0,0" transform="translate(-153.345 -266.936)"/>
  <path id="Path_323" data-name="Path 323" d="M36.569,14.832H27.626V8.245C27.626,3.7,23.308,0,18,0S8.374,3.7,8.374,8.245v6.587H-.569A1.393,1.393,0,0,0-2,16.184V27.322C-2,34.313,6.189,40,13.586,40h8.829C29.811,40,38,34.313,38,27.322V16.184A1.394,1.394,0,0,0,36.569,14.832ZM11.235,8.245C11.235,5.19,14.27,2.7,18,2.7s6.765,2.485,6.765,5.54v6.587H11.235Zm23.9,19.078c0,5.5-6.9,9.973-12.724,9.973H13.586C7.767,37.3.862,32.822.862,27.322V17.536H35.138Zm0,0" transform="translate(2)"/>
</svg>
