<svg xmlns="http://www.w3.org/2000/svg" width="48.932" height="48.927" viewBox="0 0 48.932 48.927">
  <g id="pay" transform="translate(0 -0.023)">
    <g id="Group_581" data-name="Group 581" transform="translate(14.598 36.706)">
      <g id="Group_580" data-name="Group 580">
        <path id="Path_992" data-name="Path 992" d="M154.642,384.626a1,1,0,0,0-.054-.18.97.97,0,0,0-.088-.164.929.929,0,0,0-.264-.264.943.943,0,0,0-.165-.088.9.9,0,0,0-.179-.054.94.94,0,0,0-.373,0,.927.927,0,0,0-.18.054.968.968,0,0,0-.164.088.955.955,0,0,0-.352.428.926.926,0,0,0-.054.18.918.918,0,0,0,0,.373.9.9,0,0,0,.054.179.882.882,0,0,0,.088.165.928.928,0,0,0,.264.264.964.964,0,0,0,.164.088.925.925,0,0,0,.18.055.919.919,0,0,0,.373,0,.9.9,0,0,0,.179-.055.945.945,0,0,0,.165-.088.929.929,0,0,0,.264-.264.942.942,0,0,0,.088-.165.964.964,0,0,0,.054-.179.918.918,0,0,0,0-.373Z" transform="translate(-152.75 -383.857)" fill="#fff"/>
      </g>
    </g>
    <g id="Group_583" data-name="Group 583" transform="translate(0 29.64)">
      <g id="Group_582" data-name="Group 582">
        <path id="Path_993" data-name="Path 993" d="M43.961,318.051l-.012-.028c-.88-2.058-2.943-2.819-5.384-1.985l-6.658,1.841a4.365,4.365,0,0,0-2.7-2.662l-.025-.009-7.319-2.484a7.549,7.549,0,0,0-6.09-2.8A7.642,7.642,0,0,0,9.8,313.5H.956a.956.956,0,0,0-.956.956v12.049a.956.956,0,0,0,.956.956H6.638a.956.956,0,0,0,.956-.956v-.825h2.665a.956.956,0,0,0,.956-.956v-.275a6.776,6.776,0,0,1,3.491,1.253,57.837,57.837,0,0,0,5.742,2.931l.042.018a8.579,8.579,0,0,0,3.075.58,7.618,7.618,0,0,0,3.166-.678l14.717-5.269c.026-.009.052-.02.077-.032C42.93,322.606,45.026,320.783,43.961,318.051Zm-38.279,7.5H1.911V315.413H5.682ZM9.3,323.77H7.594v-8.357H9.3ZM40.76,321.5l-14.71,5.267-.043.017-.039.017a6.2,6.2,0,0,1-4.759.081,55.374,55.374,0,0,1-5.549-2.834,8.6,8.6,0,0,0-4.446-1.512v-7.7c.906-1.485,2.663-3,4.557-3a5.515,5.515,0,0,1,4.678,2.2.956.956,0,0,0,.507.4l7.6,2.578a2.144,2.144,0,0,1,1.559,2.53,1.862,1.862,0,0,1-2.288,1.285l-8.562-2.713a.956.956,0,1,0-.577,1.822l8.577,2.718.027.008a3.751,3.751,0,0,0,2.869-.333,3.748,3.748,0,0,0,1.793-2.264q.033-.116.058-.232l7.176-1.988c1.036-.354,2.4-.482,3,.913C42.813,320.4,41.183,321.3,40.76,321.5Z" transform="translate(0 -309.922)" fill="#fff"/>
      </g>
    </g>
    <g id="Group_585" data-name="Group 585" transform="translate(32.422 11.824)">
      <g id="Group_584" data-name="Group 584">
        <path id="Path_994" data-name="Path 994" d="M341.143,124.267a.929.929,0,0,0-.055-.18.942.942,0,0,0-.352-.428.969.969,0,0,0-.164-.088.952.952,0,0,0-.552-.054.9.9,0,0,0-.179.054.942.942,0,0,0-.165.088.929.929,0,0,0-.264.264.971.971,0,0,0-.088.164.924.924,0,0,0-.054.18.919.919,0,0,0,0,.373.9.9,0,0,0,.054.179.942.942,0,0,0,.088.165.929.929,0,0,0,.264.264.943.943,0,0,0,.165.088.966.966,0,0,0,.179.054.942.942,0,0,0,.186.019.959.959,0,0,0,.187-.019,1.012,1.012,0,0,0,.179-.054.97.97,0,0,0,.164-.088.929.929,0,0,0,.264-.264.885.885,0,0,0,.088-.165.9.9,0,0,0,.055-.179.967.967,0,0,0,0-.373Z" transform="translate(-339.25 -123.498)" fill="#fff"/>
      </g>
    </g>
    <g id="Group_587" data-name="Group 587" transform="translate(2.838 0.023)">
      <g id="Group_586" data-name="Group 586" transform="translate(0 0)">
        <path id="Path_995" data-name="Path 995" d="M74.829,3.26H69.147a.956.956,0,0,0-.956.956v.825H65.526A.956.956,0,0,0,64.571,6v.275A6.776,6.776,0,0,1,61.08,5.019a57.829,57.829,0,0,0-5.742-2.931L55.3,2.07a8.131,8.131,0,0,0-6.241.1L45.21,3.545,41.968.3a.956.956,0,0,0-1.352,0L29.974,10.945a.948.948,0,0,0,0,1.352L48.16,30.483a1.033,1.033,0,0,0,1.352,0l9.716-9.716c.253.022.515.034.786.034a7.642,7.642,0,0,0,5.969-3.58h8.846a.956.956,0,0,0,.956-.956V4.216A.956.956,0,0,0,74.829,3.26ZM41.292,2.33l2.178,2.178a4.167,4.167,0,0,1-4.356,0ZM34.18,13.8,32,11.621,34.18,9.443a4.167,4.167,0,0,1,0,4.357ZM48.836,28.455l-2.178-2.178a4.161,4.161,0,0,1,4.356,0ZM52.39,24.9a6.073,6.073,0,0,0-7.109,0l-9.724-9.724a6.073,6.073,0,0,0,0-7.11l2.181-2.181a6.073,6.073,0,0,0,7.11,0l2.067,2.067a3.788,3.788,0,0,0-2.844,2.084,5.447,5.447,0,1,0,6.263,6.743l3.227,1.1a6.1,6.1,0,0,0,1.012,4.844Zm-5.81-9.4.025.009,1.911.649a3.536,3.536,0,1,1-4.8-4.039A4.231,4.231,0,0,0,46.58,15.5Zm9.37,5.836a4.18,4.18,0,0,1-.611-1.987,7.431,7.431,0,0,0,1.685.913Zm8.621-5.457c-.906,1.485-2.663,3-4.557,3a6.956,6.956,0,0,1-1-.07h0a5.474,5.474,0,0,1-3.54-1.937c-.019-.029-.1-.137-.115-.155a.952.952,0,0,0-.527-.438l-7.6-2.579a2.145,2.145,0,0,1-1.56-2.529v0a1.862,1.862,0,0,1,2.287-1.282l8.562,2.713a.956.956,0,0,0,.577-1.822l-6.81-2.158-.059-.059,0,0L46.7,5.039l3.03-1.085.033-.013.01,0,.039-.017a6.194,6.194,0,0,1,4.759-.081,55.359,55.359,0,0,1,5.549,2.834A8.6,8.6,0,0,0,64.57,8.187Zm3.621-.575H66.482V6.952h1.709Zm5.682,0H70.1V5.171h3.771Z" transform="translate(-29.691 -0.023)" fill="#fff"/>
      </g>
    </g>
  </g>
</svg>
