<svg xmlns="http://www.w3.org/2000/svg" width="49.611" height="50" viewBox="0 0 49.611 50">
  <g id="Reward" transform="translate(-16 -15.999)">
    <g id="Group_600" data-name="Group 600" transform="translate(37.101 28.951)">
      <path id="Path_1003" data-name="Path 1003" d="M223.211,145.808h2.035a.42.42,0,0,1,.42.42v.655a.42.42,0,0,1-.42.42h-1.639a.419.419,0,0,0-.418.389,2.258,2.258,0,0,1-.242.885.421.421,0,0,0,.366.626h3.861a.42.42,0,0,1,.42.42v.844a.42.42,0,0,1-.42.42h-6.6a.42.42,0,0,1-.42-.42v-.961a.42.42,0,0,1,.26-.388,1.59,1.59,0,0,0,.955-1.338.421.421,0,0,0-.417-.478h-.327a.434.434,0,0,1-.471-.42v-.655a.42.42,0,0,1,.42-.42h0a.42.42,0,0,0,.409-.515,4,4,0,0,1-.115-.847c0-1.981,1.307-3.14,3.436-3.14,1.728,0,2.935.7,3.2,2.36a.42.42,0,0,1-.416.483h-.811a.416.416,0,0,1-.406-.306c-.168-.664-.68-.974-1.552-.974a1.442,1.442,0,0,0-1.658,1.55,4.888,4.888,0,0,0,.139,1.057A.421.421,0,0,0,223.211,145.808Z" transform="translate(-220.154 -141.307)" fill="#fff"/>
    </g>
    <path id="Path_1004" data-name="Path 1004" d="M173.5,98.749A10.749,10.749,0,1,0,162.749,109.5,10.749,10.749,0,0,0,173.5,98.749Zm-10.749,9.1a9.1,9.1,0,1,1,9.1-9.1A9.1,9.1,0,0,1,162.749,107.845Z" transform="translate(-121.943 -64.559)" fill="#fff"/>
    <path id="Path_1005" data-name="Path 1005" d="M90.129,45.73a6.938,6.938,0,0,1,1.308-.644,4.8,4.8,0,0,0,2.529-1.756,4.763,4.763,0,0,0,.274-3.037,5.1,5.1,0,0,1-.04-1.779,4.935,4.935,0,0,1,.9-1.448,4.833,4.833,0,0,0,1.323-2.828,4.834,4.834,0,0,0-1.31-2.835,4.9,4.9,0,0,1-.892-1.453,5.084,5.084,0,0,1,.048-1.779,4.762,4.762,0,0,0-.258-3.037,4.8,4.8,0,0,0-2.519-1.77,5,5,0,0,1-1.534-.832,5.019,5.019,0,0,1-.827-1.54,4.788,4.788,0,0,0-1.756-2.529,4.761,4.761,0,0,0-3.036-.273,5.054,5.054,0,0,1-1.779.038,4.892,4.892,0,0,1-1.449-.905A4.837,4.837,0,0,0,78.282,16h-.007a4.842,4.842,0,0,0-2.828,1.311,4.932,4.932,0,0,1-1.452.891,5.126,5.126,0,0,1-1.779-.049,4.756,4.756,0,0,0-3.039.258,4.8,4.8,0,0,0-1.768,2.519,5.034,5.034,0,0,1-.838,1.536,5,5,0,0,1-1.54.827,4.8,4.8,0,0,0-2.525,1.758,4.764,4.764,0,0,0-.273,3.035,5.08,5.08,0,0,1,.038,1.78,4.9,4.9,0,0,1-.9,1.449,4.84,4.84,0,0,0-1.323,2.827,4.837,4.837,0,0,0,1.311,2.835,4.9,4.9,0,0,1,.892,1.453A5.106,5.106,0,0,1,62.2,40.21a4.769,4.769,0,0,0,.257,3.038,4.8,4.8,0,0,0,2.519,1.769,6.948,6.948,0,0,1,1.306.652l-8.45,14.553a.827.827,0,0,0,.927,1.215l6.39-1.7,1.488,5.592a.827.827,0,0,0,1.515.2l8.032-13.872a3.629,3.629,0,0,0,2,.719h.007a3.631,3.631,0,0,0,2-.709l7.962,13.913A.827.827,0,0,0,88.87,66a.744.744,0,0,0,.105-.007.827.827,0,0,0,.693-.6l1.513-5.581,6.39,1.73a.827.827,0,0,0,.933-1.21ZM67.721,62.976,66.539,58.52a.827.827,0,0,0-1.011-.587l-5.267,1.394,7.016-12.084.062.149A4.8,4.8,0,0,0,69.1,49.92a4.767,4.767,0,0,0,3.036.274,5.1,5.1,0,0,1,1.779-.039,3.129,3.129,0,0,1,.938.517Zm10.47-12.248a3.639,3.639,0,0,1-1.819-.981,6.043,6.043,0,0,0-2.028-1.187,3.9,3.9,0,0,0-1.022-.123,11.111,11.111,0,0,0-1.4.118,3.6,3.6,0,0,1-2-.063,3.618,3.618,0,0,1-1.06-1.728,7.731,7.731,0,0,0-.883-1.712c-.01-.013-.2-.264-.3-.365a6.169,6.169,0,0,0-2.071-1.2,3.624,3.624,0,0,1-1.722-1.067,3.607,3.607,0,0,1-.052-2,6.285,6.285,0,0,0,.007-2.419,6.072,6.072,0,0,0-1.175-2.033,3.639,3.639,0,0,1-.972-1.827,3.639,3.639,0,0,1,.981-1.819A6.042,6.042,0,0,0,63.868,30.3a6.269,6.269,0,0,0,0-2.419,3.6,3.6,0,0,1,.063-2,3.617,3.617,0,0,1,1.728-1.059,6.18,6.18,0,0,0,2.077-1.186,6.163,6.163,0,0,0,1.2-2.072A3.638,3.638,0,0,1,70,19.845a3.6,3.6,0,0,1,2-.051,6.248,6.248,0,0,0,2.419.007,6.074,6.074,0,0,0,2.033-1.176,3.648,3.648,0,0,1,1.824-.972,3.639,3.639,0,0,1,1.819.981,6.036,6.036,0,0,0,2.028,1.187,6.274,6.274,0,0,0,2.418,0,3.6,3.6,0,0,1,2,.063A3.617,3.617,0,0,1,87.6,21.617a6.175,6.175,0,0,0,1.185,2.077,6.168,6.168,0,0,0,2.071,1.2,3.63,3.63,0,0,1,1.723,1.068,3.6,3.6,0,0,1,.052,2,6.264,6.264,0,0,0-.007,2.419A6.057,6.057,0,0,0,93.8,32.408a3.628,3.628,0,0,1,.971,1.826,3.631,3.631,0,0,1-.981,1.819,6.062,6.062,0,0,0-1.182,2.03,6.291,6.291,0,0,0,0,2.418,3.6,3.6,0,0,1-.063,2,3.619,3.619,0,0,1-1.728,1.059,6.174,6.174,0,0,0-2.077,1.185c-.1.1-.294.35-.3.364a7.8,7.8,0,0,0-.891,1.707,3.638,3.638,0,0,1-1.067,1.723,3.62,3.62,0,0,1-2,.051,6.228,6.228,0,0,0-2.418-.007,6.064,6.064,0,0,0-2.033,1.176,3.648,3.648,0,0,1-1.825.972ZM90.814,58a.827.827,0,0,0-1.013.579l-1.206,4.449L81.534,50.692a3.14,3.14,0,0,1,.94-.512,5.1,5.1,0,0,1,1.779.052,4.767,4.767,0,0,0,3.039-.258,4.8,4.8,0,0,0,1.769-2.519l.063-.148,6.954,12.117Z" transform="translate(-37.411 -0.001)" fill="#fff"/>
    <path id="Path_1006" data-name="Path 1006" d="M400.633,21.762l.42.105a4.125,4.125,0,0,1,3,3.008l.105.42a.827.827,0,0,0,1.6,0l.1-.42a4.125,4.125,0,0,1,3.01-3.006l.42-.105a.827.827,0,0,0,0-1.6l-.42-.11a4.125,4.125,0,0,1-3-3.006l-.105-.42a.827.827,0,0,0-1.6,0l-.105.42a4.125,4.125,0,0,1-3.01,3.006l-.42.105a.827.827,0,0,0,0,1.6Zm4.334-2.665a5.769,5.769,0,0,0,1.863,1.863,5.769,5.769,0,0,0-1.863,1.863A5.77,5.77,0,0,0,403.1,20.96,5.77,5.77,0,0,0,404.968,19.1Z" transform="translate(-344.317 0)" fill="#fff"/>
    <path id="Path_1007" data-name="Path 1007" d="M16.633,21.762l.42.105a4.125,4.125,0,0,1,3,3.008l.105.42a.827.827,0,0,0,1.6,0l.105-.42a4.125,4.125,0,0,1,3.01-3.006l.42-.105a.827.827,0,0,0,0-1.6l-.42-.11a4.125,4.125,0,0,1-3-3.006l-.107-.42a.827.827,0,0,0-1.6,0l-.107.42a4.125,4.125,0,0,1-3,3.006l-.42.105a.827.827,0,0,0,0,1.6ZM20.968,19.1A5.77,5.77,0,0,0,22.83,20.96a5.77,5.77,0,0,0-1.863,1.863A5.77,5.77,0,0,0,19.1,20.96,5.77,5.77,0,0,0,20.968,19.1Z" transform="translate(-0.006 0)" fill="#fff"/>
    <path id="Path_1008" data-name="Path 1008" d="M409.3,268.158l-.42-.105a4.125,4.125,0,0,1-3-3.008l-.105-.42a.827.827,0,0,0-1.6,0l-.105.42a4.125,4.125,0,0,1-3.01,3.006l-.42.105a.827.827,0,0,0,0,1.6l.42.105a4.125,4.125,0,0,1,3,3.011l.105.42a.827.827,0,0,0,1.6,0l.1-.42a4.125,4.125,0,0,1,3.01-3.006l.42-.1a.827.827,0,0,0,0-1.6Zm-4.334,2.665a5.77,5.77,0,0,0-1.863-1.863,5.77,5.77,0,0,0,1.863-1.863,5.769,5.769,0,0,0,1.863,1.863A5.769,5.769,0,0,0,404.968,270.823Z" transform="translate(-344.317 -222.368)" fill="#fff"/>
    <path id="Path_1009" data-name="Path 1009" d="M20.968,273.921a.827.827,0,0,0,.8-.626l.105-.42a4.125,4.125,0,0,1,3.007-3.006l.42-.1a.827.827,0,0,0,0-1.6l-.42-.105a4.125,4.125,0,0,1-3-3.011l-.105-.42a.827.827,0,0,0-1.6,0l-.105.42a4.125,4.125,0,0,1-3.01,3.006l-.42.105a.827.827,0,0,0,0,1.6l.42.105a4.125,4.125,0,0,1,3,3.011l.105.42A.827.827,0,0,0,20.968,273.921ZM19.1,268.96a5.77,5.77,0,0,0,1.863-1.863,5.77,5.77,0,0,0,1.863,1.863,5.77,5.77,0,0,0-1.863,1.863A5.77,5.77,0,0,0,19.1,268.96Z" transform="translate(-0.006 -222.368)" fill="#fff"/>
    <path id="Path_1010" data-name="Path 1010" d="M464,168h1.654v1.654H464Z" transform="translate(-401.696 -136.291)" fill="#fff"/>
    <path id="Path_1011" data-name="Path 1011" d="M480,184h1.654v1.654H480Z" transform="translate(-416.042 -150.637)" fill="#fff"/>
    <path id="Path_1012" data-name="Path 1012" d="M448,184h1.654v1.654H448Z" transform="translate(-387.35 -150.637)" fill="#fff"/>
    <path id="Path_1013" data-name="Path 1013" d="M464,200h1.654v1.654H464Z" transform="translate(-401.696 -164.983)" fill="#fff"/>
    <path id="Path_1014" data-name="Path 1014" d="M32,168h1.654v1.654H32Z" transform="translate(-14.346 -136.291)" fill="#fff"/>
    <path id="Path_1015" data-name="Path 1015" d="M16,184h1.654v1.654H16Z" transform="translate(0 -150.637)" fill="#fff"/>
    <path id="Path_1016" data-name="Path 1016" d="M48,184h1.654v1.654H48Z" transform="translate(-28.693 -150.637)" fill="#fff"/>
    <path id="Path_1017" data-name="Path 1017" d="M32,200h1.654v1.654H32Z" transform="translate(-14.346 -164.983)" fill="#fff"/>
  </g>
</svg>
