<svg id="twt_icon" xmlns="http://www.w3.org/2000/svg" width="50" height="50" viewBox="0 0 50 50">
  <path id="twitter" d="M9.3,20.409A21.4,21.4,0,0,1,6,20.146,15.51,15.51,0,0,1,1.477,18.5L0,17.693l1.6-.526c1.749-.575,2.812-.932,4.129-1.49A5.493,5.493,0,0,1,2.9,12.406l-.372-1.13.305.047a5.549,5.549,0,0,1-.695-.857A5.261,5.261,0,0,1,1.25,7.338l.07-.986.59.229a5.519,5.519,0,0,1-.535-1.5,5.7,5.7,0,0,1,.608-3.84L2.5.3l.688.826a12.657,12.657,0,0,0,8.2,4.616,4.9,4.9,0,0,1,.3-2.605A4.878,4.878,0,0,1,13.666.861,5.957,5.957,0,0,1,17.123.012a5.522,5.522,0,0,1,3.394,1.4A11.4,11.4,0,0,0,21.76,1c.272-.1.581-.219.968-.352L24.153.154l-.929,2.653c.061-.005.124-.01.19-.012l1.521-.069-.9,1.229c-.052.07-.065.09-.083.118-.072.109-.163.245-1.4,1.893a2.324,2.324,0,0,0-.435,1.514,14.317,14.317,0,0,1-.781,5.758,10.19,10.19,0,0,1-2.735,4.052,12.081,12.081,0,0,1-5.726,2.769A17.629,17.629,0,0,1,9.3,20.409Zm0,0" transform="translate(12.938 15.003)" fill="#fff"/>
  <g id="Ellipse_74" data-name="Ellipse 74" fill="none" stroke="#fff" stroke-width="3">
    <circle cx="25" cy="25" r="25" stroke="none"/>
    <circle cx="25" cy="25" r="23.5" fill="none"/>
  </g>
</svg>
