<svg xmlns="http://www.w3.org/2000/svg" width="49.999" height="50" viewBox="0 0 49.999 50">
  <g id="wallet" transform="translate(-0.007 0)">
    <g id="Group_589" data-name="Group 589" transform="translate(22.234 32.607)">
      <g id="Group_588" data-name="Group 588">
        <path id="Path_996" data-name="Path 996" d="M230.154,333.891a2.539,2.539,0,1,0,2.539,2.539A2.542,2.542,0,0,0,230.154,333.891Zm0,3.125a.586.586,0,1,1,.586-.586A.587.587,0,0,1,230.154,337.016Z" transform="translate(-227.615 -333.891)" fill="#fff"/>
      </g>
    </g>
    <g id="Group_591" data-name="Group 591" transform="translate(30.945 29.084)">
      <g id="Group_590" data-name="Group 590">
        <path id="Path_997" data-name="Path 997" d="M318.475,298.105a.976.976,0,1,0,.286.69A.984.984,0,0,0,318.475,298.105Z" transform="translate(-316.808 -297.819)" fill="#fff"/>
      </g>
    </g>
    <g id="Group_593" data-name="Group 593" transform="translate(0.007 0)">
      <g id="Group_592" data-name="Group 592" transform="translate(0 0)">
        <path id="Path_998" data-name="Path 998" d="M45.123,14.061H44.07L30.3.287a.977.977,0,0,0-1.381,0L25.385,3.816,11.272.034a.976.976,0,0,0-1.2.691L6.5,14.061H4.108a4.106,4.106,0,0,0-4.1,4.1c0,.054,0,.108,0,.162,0,.027,0,.054,0,.081V45.118A4.888,4.888,0,0,0,4.89,50H45.123a4.888,4.888,0,0,0,4.883-4.883V18.944A4.888,4.888,0,0,0,45.123,14.061Zm-.872,1.953h.872a2.933,2.933,0,0,1,2.93,2.93v7.826a2.317,2.317,0,0,1-2.315,2.315H44.732V25.194a4.887,4.887,0,0,0-4.781-4.88ZM26.368,5.6h0L29.6,2.358l12.77,12.77-5.151,5.151H35.437l2.337-2.337a.977.977,0,0,0,0-1.381,2.03,2.03,0,0,1,0-2.867.977.977,0,0,0,0-1.381L32.419,6.959a.977.977,0,0,0-1.381,0,2.029,2.029,0,0,1-2.867,0,.977.977,0,0,0-1.381,0L13.47,20.28H11.683ZM23.494,16.611a4.667,4.667,0,0,0-4.553,3.669H16.232L27.566,8.945a4,4,0,0,0,4.077,0l4.145,4.145a4,4,0,0,0,0,4.077L32.675,20.28H28.046A4.667,4.667,0,0,0,23.494,16.611Zm2.518,3.669H20.976a2.705,2.705,0,0,1,5.036,0ZM10.651,18.55,13.237,8.9a3.992,3.992,0,0,0,3.532-2.039l4.4,1.178-6.378,6.378ZM11.709,2.173,23.791,5.41,22.759,6.442,16.448,4.75a.977.977,0,0,0-1.2.691,2.027,2.027,0,0,1-2.483,1.434.976.976,0,0,0-1.2.691L8.157,20.311H6.849Zm-7.6,13.841h1.87l-1.151,4.3H4.108a2.148,2.148,0,1,1,0-4.3Zm43.944,29.1a2.933,2.933,0,0,1-2.93,2.93H43.754a4.857,4.857,0,0,0,.978-2.928V41.194h.586a4.661,4.661,0,0,0,2.734-.884Zm0-8.61a2.737,2.737,0,0,1-2.734,2.734H24.811a4.1,4.1,0,1,1,0-8.2h2.96a.977.977,0,0,0,0-1.953h-2.96a6.054,6.054,0,1,0,0,12.109H42.779v3.923a2.933,2.933,0,0,1-2.884,2.93H6.647v-11a.977.977,0,0,0-1.953,0V48.04A2.933,2.933,0,0,1,1.96,45.118V21.655a4.076,4.076,0,0,0,2.148.61H39.849a2.933,2.933,0,0,1,2.93,2.93v3.891H35.718a.977.977,0,0,0,0,1.953h10.02a4.241,4.241,0,0,0,2.315-.685Z" transform="translate(-0.007 0)" fill="#fff"/>
      </g>
    </g>
    <g id="Group_595" data-name="Group 595" transform="translate(4.694 32.265)">
      <g id="Group_594" data-name="Group 594">
        <path id="Path_999" data-name="Path 999" d="M49.673,330.674a.976.976,0,1,0,.286.69A.984.984,0,0,0,49.673,330.674Z" transform="translate(-48.006 -330.388)" fill="#fff"/>
      </g>
    </g>
  </g>
</svg>
