<svg id="Capa_1" enable-background="new 0 0 512 512" height="512" viewBox="0 0 512 512" width="512" xmlns="http://www.w3.org/2000/svg"><g><path d="m437.019 74.981c-48.352-48.352-112.639-74.981-181.019-74.981s-132.667 26.629-181.019 74.981-74.981 112.638-74.981 181.019c0 45.934 12.43 90.908 36.011 130.533l-35.241 105.724c-1.797 5.39-.394 11.332 3.624 15.35 2.859 2.859 6.692 4.395 10.608 4.394 1.586 0 3.187-.252 4.741-.77l105.724-35.241c39.626 23.58 84.6 36.01 130.533 36.01 68.38 0 132.667-26.629 181.019-74.98 48.352-48.353 74.981-112.64 74.981-181.02 0-68.381-26.629-132.668-74.981-181.019zm-181.019 407.019c-42.629 0-84.338-12.146-120.618-35.124-2.429-1.538-5.217-2.328-8.027-2.328-1.594 0-3.195.254-4.743.77l-83.895 27.966 27.965-83.896c1.425-4.274.853-8.963-1.559-12.77-22.977-36.279-35.123-77.988-35.123-120.618 0-124.617 101.384-226 226-226s226 101.383 226 226-101.383 226-226 226z"/><path d="m136.607 193.175c16.208-16.207 42.579-16.207 58.787 0 2.929 2.929 6.768 4.394 10.606 4.394s7.678-1.465 10.607-4.394c5.857-5.857 5.857-15.355 0-21.213-27.904-27.904-73.309-27.904-101.213 0-5.858 5.857-5.858 15.355 0 21.213s15.355 5.858 21.213 0z"/><path d="m356 121c-24.813 0-45 20.187-45 45s20.187 45 45 45 45-20.187 45-45-20.187-45-45-45zm0 60c-8.271 0-15-6.729-15-15s6.729-15 15-15 15 6.729 15 15-6.729 15-15 15z"/><path d="m389.455 261.403c-8.066-1.914-16.144 3.08-18.051 11.143-12.724 53.767-60.18 91.317-115.403 91.317s-102.679-37.551-115.403-91.317c-1.908-8.061-9.985-13.054-18.051-11.143-8.062 1.907-13.05 9.989-11.142 18.051 7.583 32.043 25.956 61.086 51.733 81.78 26.21 21.041 59.19 32.629 92.864 32.629s66.653-11.588 92.864-32.629c25.777-20.694 44.15-49.737 51.733-81.78 1.906-8.061-3.083-16.143-11.144-18.051z"/></g></svg>