<svg id="yt_icon" xmlns="http://www.w3.org/2000/svg" width="50" height="50" viewBox="0 0 50 50">
  <g id="Ellipse_74" data-name="Ellipse 74" fill="none" stroke="#fff" stroke-width="3">
    <circle cx="25" cy="25" r="25" stroke="none"/>
    <circle cx="25" cy="25" r="23.5" fill="none"/>
  </g>
  <g id="youtube-logotype" transform="translate(4.933 9)">
    <g id="Group_551" data-name="Group 551" transform="translate(7.067)">
      <path id="Path_986" data-name="Path 986" d="M31.953,40.165a3.2,3.2,0,0,0-2.738-2.488,85.082,85.082,0,0,0-9.482-.351,85.109,85.109,0,0,0-9.484.351,3.2,3.2,0,0,0-2.736,2.488,27.115,27.115,0,0,0-.447,5.986,27.11,27.11,0,0,0,.441,5.986,3.2,3.2,0,0,0,2.737,2.488,85.087,85.087,0,0,0,9.483.351,85.027,85.027,0,0,0,9.483-.351,3.2,3.2,0,0,0,2.737-2.488,27.131,27.131,0,0,0,.443-5.986A27.15,27.15,0,0,0,31.953,40.165ZM14.29,41.651H12.457v9.739h-1.7V41.651h-1.8v-1.6H14.29Zm4.624,9.74H17.383v-.921a2.453,2.453,0,0,1-1.749,1.038.939.939,0,0,1-.986-.628,4.311,4.311,0,0,1-.135-1.256V42.945h1.53v6.218a4.764,4.764,0,0,0,.014.6c.037.238.153.358.358.358.307,0,.628-.237.967-.717V42.945h1.531v8.446Zm5.814-2.535a6.747,6.747,0,0,1-.155,1.7,1.212,1.212,0,0,1-1.222.949,2.086,2.086,0,0,1-1.582-.934v.819h-1.53V40.056h1.53v3.7a2.073,2.073,0,0,1,1.582-.916,1.211,1.211,0,0,1,1.222.953,6.486,6.486,0,0,1,.155,1.7ZM30.5,47.447H27.443v1.5c0,.782.256,1.172.782,1.172a.658.658,0,0,0,.684-.614,9.629,9.629,0,0,0,.034-1.037H30.5v.223c0,.493-.019.833-.033.986a2.181,2.181,0,0,1-.357.917,2.118,2.118,0,0,1-1.851.916,2.191,2.191,0,0,1-1.852-.865,3.271,3.271,0,0,1-.491-1.986V45.7a3.287,3.287,0,0,1,.473-1.99,2.176,2.176,0,0,1,1.833-.866,2.126,2.126,0,0,1,1.805.866A3.32,3.32,0,0,1,30.5,45.7v1.749Z" transform="translate(-7.067 -24.976)" fill="#fff"/>
      <path id="Path_987" data-name="Path 987" d="M69.425,58.163q-.767,0-.768,1.172v.781h1.53v-.781C70.187,58.554,69.931,58.163,69.425,58.163Z" transform="translate(-48.28 -38.92)" fill="#fff"/>
      <path id="Path_988" data-name="Path 988" d="M52.268,58.163a1.1,1.1,0,0,0-.763.372v5.148a1.092,1.092,0,0,0,.763.377c.441,0,.666-.377.666-1.14v-3.6C52.934,58.554,52.71,58.163,52.268,58.163Z" transform="translate(-36.803 -38.92)" fill="#fff"/>
      <path id="Path_989" data-name="Path 989" d="M54.1,17.473a2.485,2.485,0,0,0,1.767-1.048v.931h1.547V8.82H55.87v6.524c-.343.484-.668.724-.977.724-.207,0-.329-.122-.363-.362a3.587,3.587,0,0,1-.019-.6V8.82H52.97v6.749a4.312,4.312,0,0,0,.137,1.269A.95.95,0,0,0,54.1,17.473Z" transform="translate(-37.783 -5.902)" fill="#fff"/>
      <path id="Path_990" data-name="Path 990" d="M19.506,6.815v4.639h1.715V6.815L23.284,0H21.549l-1.17,4.5L19.162,0h-1.8c.362,1.062.738,2.129,1.1,3.191A28.215,28.215,0,0,1,19.506,6.815Z" transform="translate(-13.953)" fill="#fff"/>
      <path id="Path_991" data-name="Path 991" d="M37.6,17.264a2.108,2.108,0,0,0,1.8-.874,3.339,3.339,0,0,0,.48-2.007V11.394a3.345,3.345,0,0,0-.48-2.011,2.293,2.293,0,0,0-3.6,0,3.317,3.317,0,0,0-.484,2.011v2.989A3.309,3.309,0,0,0,35.8,16.39,2.108,2.108,0,0,0,37.6,17.264Zm-.738-6.18c0-.79.24-1.183.738-1.183s.737.393.737,1.183v3.59c0,.79-.239,1.185-.737,1.185s-.738-.4-.738-1.185Z" transform="translate(-25.968 -5.693)" fill="#fff"/>
    </g>
  </g>
</svg>
